<svg id="Layer_1" data-name="Layer 1" xmlns="http://www.w3.org/2000/svg" viewBox="0 0 900 900"><defs><style>.cls-1,.cls-2{fill:#5063f6;}.cls-1,.cls-4{opacity:0.8;}.cls-2,.cls-5{opacity:0.5;}.cls-3,.cls-4,.cls-5{fill:#ff2f1d;}</style></defs><path class="cls-1" d="M153.3572,268.17461l92.60186,53.46369a149.76938,149.76938,0,0,1,42.79168,222.29155L67.80006,416.364A85.55715,85.55715,0,1,1,153.3572,268.17461Z"/><path class="cls-2" d="M153.3572,635.72333l92.60186-53.46369a149.76942,149.76942,0,0,0,42.79168-222.29156L67.80006,487.534A85.55715,85.55715,0,1,0,153.3572,635.72333Z"/><path class="cls-2" d="M746.6428,268.17462l-92.60186,53.4637a149.76941,149.76941,0,0,0-42.79168,222.29155L832.19994,416.364A85.55715,85.55715,0,1,0,746.6428,268.17462Z"/><path class="cls-1" d="M746.6428,635.72335l-92.60186-53.4637A149.76941,149.76941,0,0,1,611.24926,359.9681L832.19994,487.534A85.55716,85.55716,0,1,1,746.6428,635.72335Z"/><circle class="cls-3" cx="449.99999" cy="450.01533" r="85.55397"/><path class="cls-4" d="M266.22563,746.6428l53.4637-92.60186a149.76941,149.76941,0,0,1,222.29155-42.79168L414.415,832.19994A85.55715,85.55715,0,1,1,266.22563,746.6428Z"/><path class="cls-5" d="M633.77436,746.6428l-53.4637-92.60186a149.76941,149.76941,0,0,0-222.29155-42.79168L485.585,832.19994A85.55716,85.55716,0,1,0,633.77436,746.6428Z"/><path class="cls-2" d="M266.22564,153.3572l53.4637,92.60186a149.76941,149.76941,0,0,0,222.29155,42.79168L414.415,67.80006A85.55716,85.55716,0,1,0,266.22564,153.3572Z"/><path class="cls-1" d="M633.77437,153.3572l-53.4637,92.60186a149.76941,149.76941,0,0,1-222.29155,42.79168L485.585,67.80006A85.55715,85.55715,0,1,1,633.77437,153.3572Z"/></svg>